PathFileType	4	(X/Y/Z)	/Users/itak/Documents/Research/Walk-IL/dataset/trc/00030_00004.trc
DataRate	CameraRate	NumFrames	NumMarkers	Units	OrigDataRate	OrigDataStartFrame	OrigNumFrames
100.000000	100.000000	4	53	mm	100.000000	0	764
Frame#	Time	RPSI			LPSI			L3			STRN			T10			C7			CLAV			RBAK			LBAK			LSHO			LUPA			LAEL			LAOL			LWTS			LWPS			LFRA			LIFD			LHPS			LHTS			RSHO			RUPA			RAEL			RAOL			RWTS			RWPS			RFRA			RIFD			RHTS			RHPS			RBHD			LFHD			RFHD			LBHD			LHIP			RHIP			RASI			LASI			LKNE			LTHI			LANK			LTIP			LTOE			LMT1			LMT5			LHEE			RKNE			RTHI			RANK			RTIP			RTOE			RMT1			RMT5			RHEE			
		X1	Y1	Z1	X2	Y2	Z2	X3	Y3	Z3	X4	Y4	Z4	X5	Y5	Z5	X6	Y6	Z6	X7	Y7	Z7	X8	Y8	Z8	X9	Y9	Z9	X10	Y10	Z10	X11	Y11	Z11	X12	Y12	Z12	X13	Y13	Z13	X14	Y14	Z14	X15	Y15	Z15	X16	Y16	Z16	X17	Y17	Z17	X18	Y18	Z18	X19	Y19	Z19	X20	Y20	Z20	X21	Y21	Z21	X22	Y22	Z22	X23	Y23	Z23	X24	Y24	Z24	X25	Y25	Z25	X26	Y26	Z26	X27	Y27	Z27	X28	Y28	Z28	X29	Y29	Z29	X30	Y30	Z30	X31	Y31	Z31	X32	Y32	Z32	X33	Y33	Z33	X34	Y34	Z34	X35	Y35	Z35	X36	Y36	Z36	X37	Y37	Z37	X38	Y38	Z38	X39	Y39	Z39	X40	Y40	Z40	X41	Y41	Z41	X42	Y42	Z42	X43	Y43	Z43	X44	Y44	Z44	X45	Y45	Z45	X46	Y46	Z46	X47	Y47	Z47	X48	Y48	Z48	X49	Y49	Z49	X50	Y50	Z50	X51	Y51	Z51	X52	Y52	Z52	X53	Y53	Z53	

1	0	408.8523254394531	1070.01611328125	886.60498046875	432.4949951171875	1059.466064453125	1049.678588867188	429.0870056152344	1120.498168945312	978.1646728515625	222.2484130859375	1319.765991210938	999.4429931640625	465.7298583984375	1262.388305664062	986.5179443359375	429.3792724609375	1532.143798828125	1008.5224609375	266.6187133789062	1445.340454101562	1005.14306640625	474.2666625976562	1394.734375	922.82421875	449.0736999511719	1487.567504882812	1103.678466796875	350.1805114746094	1496.725219726562	1181.088623046875	380.73046875	1368.915405273438	1255.477416992188	379.2998046875	1151.168212890625	1277.126586914062	429.6732177734375	1139.814819335938	1184.843627929688	288.4469604492188	897.8570556640625	1220.658203125	366.4235534667969	884.0986938476562	1261.442260742188	365.856201171875	1034.825561523438	1282.780639648438	269.0674438476562	711.6532592773438	1200.707763671875	335.0037536621094	793.4684448242188	1259.154174804688	269.2479248046875	803.0203247070312	1231.437133789062	348.4151611328125	1523.822875976562	835.5494995117188	358.7038269042969	1456.441162109375	761.8309936523438	390.9286193847656	1188.311767578125	726.6332397460938	391.9505310058594	1158.193969726562	822.0562744140625	248.9007568359375	933.9595947265625	754.1649169921875	310.7380065917969	917.94189453125	687.1212158203125	375.2106628417969	1112.408325195312	708.8865966796875	223.6266479492188	748.8292846679688	767.0796508789062	209.1541442871094	826.7648315429688	738.2239379882812	264.1465454101562	819.3041381835938	686.9846801757812	368.681884765625	1720.659301757812	1078.006958007812	214.4570159912109	1729.601196289062	923.7061157226562	197.1936950683594	1735.246459960938	1020.735595703125	387.6198120117188	1710.1845703125	935.3919067382812	346.0722961425781	958.7133178710938	1165.58935546875	282.38330078125	957.0215454101562	799.7451782226562	189.5951690673828	993.8245239257812	884.5097045898438	222.6170349121094	1006.8671875	1117.798828125	310.3519897460938	515.2830810546875	1120.875122070312	333.8107299804688	653.2392578125	1154.718872070312	412.59912109375	39.64916229248047	1113.298706054688	395.6963806152344	287.2070007324219	1133.205688476562	189.0234069824219	38.88539505004883	1067.153686523438	246.4245147705078	48.26157379150391	1045.876586914062	291.2410583496094	37.21791076660156	1144.226440429688	477.1375122070312	45.97147369384766	1055.885009765625	296.3137512207031	520.5174560546875	851.109619140625	268.5998229980469	790.001708984375	804.7993774414062	417.43505859375	43.65366744995117	872.8048706054688	326.6139831542969	399.8794555664062	850.5795288085938	185.6625823974609	42.19512557983398	916.3975219726562	249.6998748779297	45.09024429321289	946.0941162109375	268.4310913085938	41.79507064819336	852.1539306640625	473.0664672851562	43.67184829711914	917.2611694335938	
2	0.01	408.8078308105469	1069.998291015625	886.6382446289062	432.5057983398438	1059.455932617188	1049.708740234375	429.0877380371094	1120.491455078125	978.1931762695312	222.2137603759766	1319.75927734375	999.5274658203125	465.7488708496094	1262.383544921875	986.5337524414062	429.3874206542969	1532.1337890625	1008.544128417969	266.6234436035156	1445.332641601562	1005.215026855469	474.2412414550781	1394.728515625	922.8240356445312	449.1420288085938	1487.557861328125	1103.6748046875	350.2781372070312	1496.716674804688	1181.139404296875	380.8638000488281	1368.901000976562	1255.521362304688	379.4027709960938	1151.166625976562	1277.185424804688	429.7428283691406	1139.79736328125	1184.8828125	288.4288635253906	897.9049682617188	1220.730834960938	366.42138671875	884.097412109375	1261.47802734375	365.9129028320312	1034.82275390625	1282.838989257812	268.8396606445312	711.66162109375	1200.80810546875	334.8560180664062	793.4712524414062	1259.2158203125	269.2337951660156	803.1343383789062	1231.518920898438	348.3463439941406	1523.801879882812	835.6030883789062	358.6189270019531	1456.423095703125	761.884765625	390.8478088378906	1188.310791015625	726.6754150390625	391.9436950683594	1158.190551757812	822.1080322265625	248.8796844482422	933.9098510742188	754.2174682617188	310.7071228027344	917.9076538085938	687.1967163085938	375.1413269042969	1112.40185546875	708.9500122070312	223.7919464111328	748.7215576171875	767.2347412109375	209.1521301269531	826.6748046875	738.3724975585938	264.1738891601562	819.2453002929688	687.12158203125	368.994140625	1720.6162109375	1077.9482421875	214.4366455078125	1729.67333984375	923.9725341796875	197.3292999267578	1735.340698242188	1021.030822753906	387.6130065917969	1710.102905273438	935.29443359375	346.14208984375	958.7048950195312	1165.652099609375	282.2929382324219	957.024658203125	799.8284301757812	189.5705261230469	993.8173828125	884.6201171875	222.6534271240234	1006.847961425781	1117.907836914062	310.3642883300781	515.282958984375	1120.905151367188	333.8335571289062	653.2269897460938	1154.775512695312	412.5989379882812	39.6375846862793	1113.298950195312	395.7182312011719	287.2082824707031	1133.226806640625	188.9692993164062	38.91696929931641	1067.137329101562	246.4246063232422	48.26107788085938	1045.876220703125	291.2396850585938	37.21348190307617	1144.229248046875	477.1370239257812	45.97097396850586	1055.886474609375	296.2906188964844	520.5187377929688	851.148681640625	268.5137329101562	790.0046997070312	804.9034423828125	417.43359375	43.65266036987305	872.810302734375	326.5840148925781	399.8713989257812	850.61767578125	185.6560516357422	42.19852447509766	916.396240234375	249.697265625	45.08639144897461	946.0922241210938	268.4276123046875	41.79769897460938	852.1461791992188	472.9347534179688	43.59528350830078	917.2731323242188	
3	0.02	408.757568359375	1069.9775390625	886.6793823242188	432.5206298828125	1059.445068359375	1049.746337890625	429.0905456542969	1120.481567382812	978.2271118164062	222.1692810058594	1319.751098632812	999.6333618164062	465.7716674804688	1262.377075195312	986.5491943359375	429.4013061523438	1532.12158203125	1008.565246582031	266.628173828125	1445.3134765625	1005.30517578125	474.2068176269531	1394.721069335938	922.8197021484375	449.2271118164062	1487.545654296875	1103.669921875	350.4010925292969	1496.708740234375	1181.197998046875	381.0455017089844	1368.885375976562	1255.5732421875	379.5304260253906	1151.169921875	1277.257934570312	429.8304443359375	1139.775268554688	1184.927856445312	288.397705078125	897.9705810546875	1220.824096679688	366.4138793945312	884.0983276367188	1261.5234375	365.9779357910156	1034.825805664062	1282.908935546875	268.5071716308594	711.6719360351562	1200.92333984375	334.649658203125	793.4781494140625	1259.290283203125	269.1845092773438	803.2757568359375	1231.619750976562	348.2573852539062	1523.77734375	835.6669921875	358.5052490234375	1456.400390625	761.9505615234375	390.7440185546875	1188.307739257812	726.7271728515625	391.9359741210938	1158.186157226562	822.1712646484375	248.8599243164062	933.8446655273438	754.2863159179688	310.6803588867188	917.8621826171875	687.2921142578125	375.0525207519531	1112.39306640625	709.0304565429688	224.0043487548828	748.5823364257812	767.4281616210938	209.1660461425781	826.5577392578125	738.5567626953125	264.2325134277344	819.1748046875	687.2852783203125	369.3847351074219	1720.560424804688	1077.867553710938	214.40478515625	1729.77685546875	924.3175048828125	197.5057830810547	1735.461547851562	1021.417724609375	387.6091003417969	1710.001342773438	935.1671142578125	346.2254333496094	958.6959838867188	1165.731323242188	282.1886596679688	957.0241088867188	799.9331665039062	189.5388336181641	993.8074340820312	884.760498046875	222.7029113769531	1006.8251953125	1118.040649414062	310.3790893554688	515.2805786132812	1120.943237304688	333.8619384765625	653.2130126953125	1154.846801757812	412.5994262695312	39.62416458129883	1113.301025390625	395.7442932128906	287.20947265625	1133.25146484375	188.9029388427734	38.95553588867188	1067.117797851562	246.4246978759766	48.26053619384766	1045.8759765625	291.2391052246094	37.20823287963867	1144.231201171875	477.1386413574219	45.97122192382812	1055.887817382812	296.2648315429688	520.52197265625	851.1986083984375	268.4259643554688	790.0093994140625	805.0256958007812	417.4300537109375	43.65255355834961	872.8173217773438	326.5497131347656	399.8643493652344	850.6630249023438	185.6494140625	42.20158767700195	916.394775390625	249.6942291259766	45.08251571655273	946.091552734375	268.4229736328125	41.80202102661133	852.1351318359375	472.8362121582031	43.53838729858398	917.3026733398438	
4	0.03	408.7054748535156	1069.955078125	886.7262573242188	432.5396728515625	1059.434692382812	1049.78955078125	429.0956726074219	1120.46826171875	978.2643432617188	222.1172027587891	1319.741455078125	999.7559814453125	465.7969665527344	1262.368896484375	986.5615234375	429.4222412109375	1532.107666015625	1008.581848144531	266.6318969726562	1445.281127929688	1005.409973144531	474.1643371582031	1394.712036132812	922.8089599609375	449.3244934082031	1487.53173828125	1103.662963867188	350.5451965332031	1496.703979492188	1181.25927734375	381.2743530273438	1368.870483398438	1255.629516601562	379.6792907714844	1151.1796875	1277.339599609375	429.9328002929688	1139.749633789062	1184.97509765625	288.3504638671875	898.0537719726562	1220.935546875	366.3982543945312	884.1027221679688	1261.577514648438	366.0470581054688	1034.837646484375	1282.986694335938	268.0621948242188	711.69140625	1201.03759765625	334.3918762207031	793.4933471679688	1259.375854492188	269.0862121582031	803.4393310546875	1231.736572265625	348.1504211425781	1523.751831054688	835.7371215820312	358.366455078125	1456.374755859375	762.0245361328125	390.6198425292969	1188.301635742188	726.7866821289062	391.9275512695312	1158.18115234375	822.242919921875	248.8471069335938	933.7645263671875	754.3726196289062	310.6651000976562	917.8060913085938	687.4033203125	374.9473571777344	1112.381958007812	709.1248168945312	224.2550506591797	748.4171142578125	767.6466674804688	209.209716796875	826.4168090820312	738.7696533203125	264.3305053710938	819.0966796875	687.4646606445312	369.8378601074219	1720.494140625	1077.764892578125	214.3591613769531	1729.911743164062	924.7291259765625	197.7233428955078	1735.606079101562	1021.888244628906	387.6091918945312	1709.884033203125	935.0119018554688	346.3163452148438	958.687255859375	1165.82421875	282.0790405273438	957.0191040039062	800.0551147460938	189.5004577636719	993.7941284179688	884.9254760742188	222.7645416259766	1006.800659179688	1118.189819335938	310.3958129882812	515.2754516601562	1120.987915039062	333.89501953125	653.1987915039062	1154.928955078125	412.6006469726562	39.60944366455078	1113.305419921875	395.7728576660156	287.2106018066406	1133.278442382812	188.8336639404297	38.99600982666016	1067.09716796875	246.4247131347656	48.26006698608398	1045.875610351562	291.2400512695312	37.20329666137695	1144.232177734375	477.1426086425781	45.97198867797852	1055.888916015625	296.2386169433594	520.5276489257812	851.2582397460938	268.34716796875	790.0160522460938	805.1571044921875	417.4241333007812	43.6537971496582	872.8256225585938	326.5148315429688	399.8605651855469	850.7139282226562	185.6434783935547	42.20375061035156	916.3933715820312	249.6907348632812	45.07927703857422	946.0927734375	268.4164428710938	41.80899429321289	852.120361328125	472.7937622070312	43.51510620117188	917.3457641601562	
